<?xml version="1.0" encoding="UTF-8"?>
<svg version="1.1" xmlns="http://www.w3.org/2000/svg" width="240" height="240">
<path d="M0 0 C0.65355469 0.16628906 1.30710937 0.33257813 1.98046875 0.50390625 C4.46977592 1.77244445 5.37124358 3.03713077 6.8125 5.4375 C7.17326355 8.38616943 7.17326355 8.38616943 7.15307617 11.85839844 C7.15284958 13.15944519 7.15262299 14.46049194 7.15238953 15.80096436 C7.13707067 17.21627142 7.1214227 18.63157495 7.10546875 20.046875 C7.09987107 21.49846966 7.09560178 22.95007 7.09260559 24.40167236 C7.0811702 28.21583804 7.05171465 32.02965911 7.01849365 35.84368896 C6.98776438 39.73819314 6.97409417 43.63275319 6.95898438 47.52734375 C6.92684336 55.16421933 6.87566324 62.80081131 6.8125 70.4375 C7.94953873 70.42861755 9.08657745 70.41973511 10.2580719 70.4105835 C20.98390495 70.32942733 31.70967554 70.26950073 42.43574619 70.23025131 C47.94988891 70.20939425 53.46378336 70.18111061 58.9777832 70.13574219 C64.30108512 70.09221789 69.62414852 70.06834874 74.94761467 70.05799103 C76.97656953 70.05061152 79.00551163 70.03620101 81.0343647 70.01457977 C83.88069796 69.98545853 86.72605103 69.98154767 89.57250977 69.98339844 C90.40761078 69.96901733 91.24271179 69.95463623 92.1031189 69.93981934 C97.8051865 69.97982536 101.14520347 71.10684488 105.8125 74.4375 C108.58628566 78.94490169 109.100913 82.19167502 108.33886719 87.40820312 C107.47295922 90.74652736 105.61487568 92.93179058 103.4375 95.5625 C102.5194903 96.6939772 101.601523 97.82548879 100.68359375 98.95703125 C100.20776855 99.53146973 99.73194336 100.1059082 99.24169922 100.69775391 C97.39760609 102.9425451 95.61811558 105.23408588 93.8371582 107.52905273 C88.84942029 113.9483634 83.72085354 120.25029605 78.57885742 126.54614258 C74.41853963 131.65470909 70.40070343 136.85427213 66.40625 142.09375 C63.45038799 145.93637061 60.38137436 149.68497212 57.3125 153.4375 C53.38636303 158.23927896 49.51095303 163.06761511 45.75 168 C40.64517545 174.68449338 35.43261137 181.27604 30.12988281 187.8046875 C28.98589136 189.2225924 27.8621632 190.65680005 26.7421875 192.09375 C24.04982474 195.42600167 22.22608655 197.2380922 18.3125 199.125 C13.93811364 199.51557021 11.60388001 198.59338275 7.8125 196.4375 C5.4354736 192.8719604 5.56909077 191.35878639 5.58544922 187.13012695 C5.58560028 185.82900467 5.58575134 184.52788239 5.58590698 183.18733215 C5.59612031 181.76681363 5.6065523 180.34629667 5.6171875 178.92578125 C5.62091817 177.47275487 5.62376489 176.01972597 5.62576294 174.56669617 C5.63339519 170.74438518 5.65304008 166.92222646 5.6751709 163.09997559 C5.69563817 159.1988328 5.70476654 155.29766539 5.71484375 151.39648438 C5.73628643 143.74342021 5.77041736 136.09048145 5.8125 128.4375 C4.08481888 128.45415459 4.08481888 128.45415459 2.32223511 128.47114563 C-8.5363232 128.57253768 -19.39478537 128.64747329 -30.25370979 128.69656086 C-35.83633287 128.72264589 -41.41857356 128.75802468 -47.00097656 128.81469727 C-52.38912587 128.86905499 -57.77690755 128.89892877 -63.16530991 128.91188622 C-65.22023175 128.92111926 -67.27513365 128.93914945 -69.32989883 128.96615028 C-72.21011965 129.0024902 -75.08882481 129.00744323 -77.96923828 129.00512695 C-79.24130882 129.03209152 -79.24130882 129.03209152 -80.53907776 129.05960083 C-84.7149676 129.02330401 -87.36629559 128.71959758 -90.67379761 126.04655457 C-93.23951578 123.38351111 -94.43552296 122.03027921 -95.1875 118.4375 C-94.90897854 109.66407401 -90.47978089 104.66197444 -85.125 97.9375 C-84.14058378 96.69274093 -83.15620992 95.44794836 -82.171875 94.203125 C-81.42454102 93.26049805 -81.42454102 93.26049805 -80.66210938 92.29882812 C-78.39253 89.4340478 -76.13315533 86.56128883 -73.875 83.6875 C-73.42954834 83.12095703 -72.98409668 82.55441406 -72.52514648 81.97070312 C-68.72974708 77.13886003 -64.95721953 72.28939165 -61.1875 67.4375 C-55.65299557 60.31420722 -50.0944184 53.21053308 -44.51416016 46.12304688 C-42.23663794 43.22941173 -39.96225993 40.33330677 -37.6875 37.4375 C-36.7708477 36.27082204 -35.85418105 35.10415536 -34.9375 33.9375 C-34.48375 33.36 -34.03 32.7825 -33.5625 32.1875 C-31.5 29.5625 -31.5 29.5625 -29.4375 26.9375 C-28.98334717 26.35911377 -28.52919434 25.78072754 -28.0612793 25.18481445 C-27.15014882 24.02594457 -26.23756496 22.86821581 -25.32348633 21.71166992 C-22.9335355 18.6837726 -20.57686167 15.63635699 -18.26171875 12.55078125 C-17.53662109 11.59655273 -17.53662109 11.59655273 -16.796875 10.62304688 C-15.8771575 9.41149594 -14.96633528 8.19311808 -14.06640625 6.96679688 C-10.48367924 2.27957887 -6.20283527 -1.77046995 0 0 Z " fill="#63DBA9" transform="translate(114.1875,21.5625)"/>
</svg>
